<?xml version="1.0" encoding="UTF-8"?>
<svg xmlns="http://www.w3.org/2000/svg" viewBox="0 0 128 128">
  <defs>
    <linearGradient id="bg" x1="20" y1="12" x2="108" y2="116" gradientUnits="userSpaceOnUse">
      <stop offset="0" stop-color="#3fc5b6"/>
      <stop offset="0.48" stop-color="#1f8a9e"/>
      <stop offset="1" stop-color="#26466f"/>
    </linearGradient>
    <linearGradient id="cover" x1="30" y1="28" x2="80" y2="82" gradientUnits="userSpaceOnUse">
      <stop offset="0" stop-color="#f6d365"/>
      <stop offset="0.54" stop-color="#f07356"/>
      <stop offset="1" stop-color="#4d3b8f"/>
    </linearGradient>
    <filter id="shadow" x="-20%" y="-20%" width="140%" height="150%">
      <feDropShadow dx="0" dy="8" stdDeviation="8" flood-color="#0b1724" flood-opacity="0.35"/>
    </filter>
  </defs>

  <rect x="8" y="8" width="112" height="112" rx="24" fill="url(#bg)"/>
  <path d="M24 95c19 11 60 12 80-4v9c-17 18-63 19-80 3z" fill="#10283f" opacity="0.22"/>

  <g filter="url(#shadow)">
    <rect x="27" y="27" width="57" height="57" rx="13" fill="url(#cover)"/>
    <circle cx="55.5" cy="55.5" r="15.5" fill="#ffffff" opacity="0.86"/>
    <circle cx="55.5" cy="55.5" r="5.5" fill="#26466f"/>
    <path d="M31 74c15-10 30-12 49-4v9H31z" fill="#231f46" opacity="0.35"/>
  </g>

  <g fill="none" stroke="#d8fff7" stroke-linecap="round" stroke-width="6" opacity="0.9">
    <path d="M91 39c7 6 11 15 11 25s-4 19-11 25"/>
    <path d="M101 28c10 9 16 22 16 36s-6 27-16 36" opacity="0.62"/>
  </g>

  <g filter="url(#shadow)">
    <rect x="42" y="82" width="58" height="25" rx="12.5" fill="#f8fafc"/>
    <path d="M63 90.5v8l-7-4z" fill="#1f8a9e"/>
    <path d="M73 90l9 4.5-9 4.5z" fill="#26466f"/>
    <rect x="87" y="90.5" width="3" height="8" rx="1.5" fill="#26466f"/>
  </g>
</svg>
